<svg width="108" height="14" viewBox="0 0 108 14" fill="none" xmlns="http://www.w3.org/2000/svg">
<rect y="0.00012207" width="24" height="14" rx="2" fill="#1B5BA6"/>
<path d="M12.3353 5.97342C12.3242 6.76662 13.118 7.20929 13.716 7.47245C14.3303 7.7425 14.5367 7.91565 14.5344 8.1571C14.5297 8.5267 14.0443 8.68979 13.5899 8.69614C12.7973 8.70726 12.3365 8.50287 11.9701 8.34826L11.6846 9.555C12.0522 9.70803 12.7328 9.84147 13.4387 9.84729C15.0954 9.84729 16.1794 9.10863 16.1853 7.96331C16.1917 6.50981 13.9593 6.42932 13.9745 5.77962C13.9798 5.58264 14.1879 5.37243 14.644 5.31895C14.8697 5.29194 15.4929 5.27129 16.1993 5.56517L16.4766 4.39761C16.0967 4.27264 15.6084 4.15297 15.0004 4.15297C13.441 4.15297 12.3441 4.9017 12.3353 5.97342ZM19.1411 4.25358C18.8386 4.25358 18.5836 4.41296 18.4699 4.65759L16.1032 9.76151H17.7588L18.0882 8.93919H20.1114L20.3025 9.76151H21.7617L20.4883 4.25358H19.1411ZM19.3727 5.7415L19.8505 7.80975H18.542L19.3727 5.7415ZM10.328 4.25358L9.02301 9.76151L10.6006 9.76151L11.905 4.25358H10.328ZM7.99414 4.25358L6.35204 8.00249L5.68782 4.81486C5.60985 4.45903 5.30207 4.25358 4.96028 4.25358H2.27583L2.23831 4.41349C2.78939 4.52151 3.41551 4.69572 3.79481 4.88211C4.02697 4.99595 4.09321 5.0955 4.16943 5.36608L5.42752 9.76151H7.09482L9.65088 4.25358H7.99414Z" fill="white"/>
<rect x="28" y="0.00012207" width="24" height="14" rx="2" fill="black"/>
<path d="M42.3655 3.80655H38.3787V10.8526H42.3655V3.80655Z" fill="#FF5F00"/>
<path d="M38.632 7.32885C38.632 5.89724 39.3155 4.62747 40.366 3.80585C39.5939 3.2083 38.6194 2.84729 37.5562 2.84729C35.0376 2.84729 32.9999 4.85154 32.9999 7.32885C32.9999 9.80616 35.0376 11.8104 37.5562 11.8104C38.6194 11.8104 39.5939 11.4494 40.366 10.8519C39.3155 10.0427 38.632 8.76046 38.632 7.32885Z" fill="#EB001B"/>
<path d="M47.7446 7.32885C47.7446 9.80616 45.7069 11.8104 43.1883 11.8104C42.1251 11.8104 41.1506 11.4494 40.3785 10.8519C41.4417 10.0302 42.1125 8.76046 42.1125 7.32885C42.1125 5.89724 41.429 4.62747 40.3785 3.80585C41.1506 3.2083 42.1251 2.84729 43.1883 2.84729C45.7069 2.84729 47.7446 4.86399 47.7446 7.32885Z" fill="#F79E1B"/>
<path fill-rule="evenodd" clip-rule="evenodd" d="M47.7447 11.8784V11.2333H47.6112L47.455 11.6941L47.2989 11.2333H47.1646V11.8784H47.2613V11.39L47.4067 11.8093H47.5067L47.6517 11.39V11.8784H47.7447ZM46.8858 11.8784V11.3439H47.0717V11.2333H46.6292V11.3439H46.8043V11.8784H46.8858Z" fill="#F79E1B"/>
<rect x="56" y="0.00012207" width="24" height="14" fill="white"/>
<path d="M61.1126 0.00012207H66.3541C67.0857 0.00012207 67.5408 0.635718 67.3701 1.4181L64.9298 12.5843C64.7576 13.364 64.025 14.0001 63.2929 14.0001H58.0519C57.3212 14.0001 56.8651 13.364 57.0358 12.5843L59.4771 1.4181C59.6478 0.635718 60.38 0.00012207 61.1126 0.00012207Z" fill="#E21836"/>
<path d="M65.9179 0H71.9455C72.677 0 72.3472 0.635596 72.1751 1.41797L69.7352 12.5842C69.564 13.3639 69.6174 14 68.8843 14H62.8567C62.1236 14 61.6699 13.3639 61.8422 12.5842L64.2819 1.41797C64.4552 0.635596 65.1858 0 65.9179 0Z" fill="#00447C"/>
<path d="M71.7064 0H76.9479C77.6806 0 78.1357 0.635596 77.9636 1.41797L75.5237 12.5842C75.3514 13.3639 74.6184 14 73.8858 14H68.6467C67.9137 14 67.459 13.3639 67.6307 12.5842L70.071 1.41797C70.2417 0.635596 70.9733 0 71.7064 0Z" fill="#007B84"/>
<path d="M62.4814 3.57846C61.9424 3.58432 61.7832 3.57846 61.7324 3.56566C61.7128 3.66465 61.3491 5.45284 61.3481 5.45434C61.2698 5.81612 61.2128 6.07401 61.0192 6.24053C60.9094 6.33734 60.7811 6.38404 60.6324 6.38404C60.3933 6.38404 60.2541 6.25755 60.2307 6.01764L60.2262 5.93526C60.2262 5.93526 60.2991 5.45067 60.2991 5.44794C60.2991 5.44794 60.6808 3.81838 60.7492 3.60297C60.7527 3.59072 60.7538 3.58432 60.7546 3.57846C60.0116 3.58541 59.8799 3.57846 59.8708 3.56566C59.8658 3.58323 59.8474 3.68426 59.8474 3.68426L59.4577 5.52092L59.4242 5.67669L59.3594 6.1862C59.3594 6.33734 59.3873 6.4607 59.4427 6.565C59.6203 6.89574 60.1268 6.9453 60.4134 6.9453C60.7826 6.9453 61.129 6.86169 61.363 6.70906C61.7693 6.45321 61.8756 6.05331 61.9704 5.69793L62.0143 5.51561C62.0143 5.51561 62.4076 3.82314 62.4744 3.60297C62.4769 3.59072 62.478 3.58432 62.4814 3.57846ZM63.8194 4.9438C63.7246 4.9438 63.5514 4.9683 63.3957 5.04959C63.3393 5.0805 63.2859 5.11617 63.2295 5.15171L63.2804 4.95605L63.2525 4.9231C62.9225 4.99431 62.8487 5.00384 62.5439 5.04959L62.5183 5.0677C62.4829 5.38046 62.4515 5.61561 62.3203 6.23037C62.2703 6.45694 62.2185 6.68569 62.1665 6.91172L62.1805 6.94045C62.4929 6.92289 62.5877 6.92289 62.8592 6.92765L62.8811 6.90219C62.9156 6.71388 62.9201 6.66976 62.9965 6.28838C63.0324 6.10756 63.1073 5.71024 63.1442 5.56877C63.212 5.53528 63.279 5.50233 63.3428 5.50233C63.495 5.50233 63.4765 5.6438 63.4706 5.70017C63.4641 5.7948 63.4086 6.10388 63.3518 6.36926L63.3138 6.54055C63.2874 6.66704 63.2584 6.78999 63.232 6.9154L63.2435 6.94045C63.5514 6.92289 63.6453 6.92289 63.9082 6.92765L63.9391 6.90219C63.9866 6.60808 64.0005 6.52938 64.0849 6.10116L64.1273 5.90441C64.2097 5.51935 64.2511 5.32409 64.1887 5.16506C64.1228 4.98682 63.9646 4.9438 63.8194 4.9438ZM65.314 5.34695C65.1504 5.38045 65.046 5.40278 64.9423 5.41721C64.8394 5.43478 64.7391 5.45071 64.581 5.47413L64.5685 5.48624L64.557 5.49591C64.5405 5.62145 64.529 5.72997 64.5071 5.85755C64.4886 5.98949 64.4601 6.13941 64.4137 6.35481C64.3778 6.5197 64.3593 6.57716 64.3389 6.63516C64.3189 6.69317 64.297 6.74954 64.2566 6.91171L64.2661 6.92668L64.274 6.94044C64.4218 6.93295 64.5185 6.92764 64.6179 6.92668C64.7172 6.92287 64.82 6.92668 64.9792 6.92764L64.9931 6.91552L65.0081 6.90218C65.0311 6.75594 65.0345 6.71659 65.0486 6.64524C65.0625 6.56872 65.0865 6.46279 65.1454 6.17984C65.1733 6.04695 65.2043 5.91447 65.2332 5.77885C65.2632 5.64378 65.2946 5.51075 65.3245 5.37786L65.3201 5.36179L65.314 5.34695ZM65.3175 4.80337C65.1688 4.70983 64.9078 4.73951 64.7321 4.86873C64.557 4.99536 64.5371 5.17509 64.6853 5.26986C64.8314 5.36081 65.0934 5.33372 65.2676 5.20341C65.4424 5.07406 65.4642 4.89596 65.3175 4.80337ZM66.2169 6.96975C66.5178 6.96975 66.8262 6.88138 67.0583 6.61914C67.2369 6.40646 67.3188 6.09002 67.3472 5.95971C67.4395 5.52781 67.3676 5.32616 67.2773 5.20334C67.1401 5.01612 66.8976 4.95608 66.646 4.95608C66.4948 4.95608 66.1345 4.97201 65.853 5.24855C65.6509 5.44802 65.5575 5.71871 65.5012 5.97823C65.4443 6.24266 65.3789 6.71867 65.7897 6.89582C65.9164 6.95382 66.0991 6.96975 66.2169 6.96975ZM66.1934 5.99798C66.2627 5.67092 66.3446 5.39642 66.5537 5.39642C66.7174 5.39642 66.7293 5.60066 66.6565 5.92881C66.6435 6.00165 66.5837 6.27248 66.5028 6.3878C66.4463 6.4729 66.3795 6.52451 66.3057 6.52451C66.2837 6.52451 66.153 6.52451 66.151 6.31768C66.1499 6.21556 66.1695 6.11126 66.1934 5.99798ZM68.0993 6.92769L68.1228 6.90223C68.1561 6.71392 68.1616 6.66967 68.2355 6.28842C68.2724 6.1076 68.3488 5.71028 68.3847 5.56881C68.4526 5.53518 68.5184 5.50223 68.5844 5.50223C68.7355 5.50223 68.7171 5.6437 68.7111 5.70007C68.7056 5.79484 68.6502 6.10379 68.5923 6.36916L68.5564 6.54045C68.5289 6.66708 68.499 6.7899 68.4726 6.91544L68.4841 6.94049C68.793 6.92293 68.8833 6.92293 69.1478 6.92769L69.1797 6.90223C69.2261 6.60799 69.2386 6.52929 69.3255 6.1012L69.3669 5.90431C69.4497 5.51925 69.4916 5.32413 69.4302 5.1651C69.3624 4.98686 69.2032 4.94384 69.06 4.94384C68.9651 4.94384 68.7909 4.96821 68.6362 5.04963C68.5809 5.08054 68.5255 5.11608 68.471 5.15175L68.5184 4.95609L68.493 4.923C68.1631 4.99435 68.0878 5.00388 67.7833 5.04963L67.7599 5.06774C67.723 5.3805 67.693 5.61552 67.5618 6.23042C67.5118 6.45699 67.46 6.68573 67.4081 6.91176L67.422 6.94049C67.7349 6.92293 67.8283 6.92293 68.0993 6.92769ZM70.3689 6.94042C70.3884 6.83939 70.5037 6.24056 70.5048 6.24056C70.5048 6.24056 70.603 5.80117 70.609 5.78524C70.609 5.78524 70.6399 5.73949 70.6708 5.72138H70.7163C71.1455 5.72138 71.63 5.72138 72.0099 5.4236C72.2683 5.21936 72.445 4.91776 72.5238 4.55122C72.5443 4.46135 72.5593 4.35447 72.5593 4.24758C72.5593 4.1072 72.5329 3.96832 72.4565 3.8598C72.2628 3.571 71.8771 3.56569 71.4319 3.56351C71.4305 3.56351 71.2124 3.56569 71.2124 3.56569C70.6425 3.57318 70.4139 3.571 70.32 3.55875C70.3121 3.603 70.2971 3.6817 70.2971 3.6817C70.2971 3.6817 70.093 4.6901 70.093 4.69174C70.093 4.69174 69.6044 6.83572 69.5814 6.93675C70.0791 6.93035 70.2831 6.93035 70.3689 6.94042ZM70.7472 5.1491C70.7472 5.1491 70.9643 4.14274 70.9633 4.14655L70.9703 4.09495L70.9734 4.0556L71.0601 4.06513C71.0601 4.06513 71.5078 4.10611 71.5183 4.1072C71.6949 4.18005 71.7678 4.36781 71.7169 4.6129C71.6705 4.83688 71.5342 5.02519 71.3591 5.11615C71.2148 5.19321 71.0381 5.19961 70.8561 5.19961H70.7383L70.7472 5.1491ZM72.0987 6.01662C72.0413 6.27723 71.9754 6.75324 72.3841 6.9229C72.5144 6.98199 72.6312 6.99956 72.7499 6.99316C72.8752 6.98594 72.9913 6.91895 73.0989 6.82255C73.0892 6.86217 73.0795 6.90179 73.0698 6.94155L73.0883 6.96702C73.3823 6.95381 73.4735 6.95381 73.792 6.95639L73.8209 6.93297C73.8674 6.64159 73.9112 6.35865 74.0321 5.80121C74.091 5.5342 74.1497 5.26978 74.2102 5.00386L74.2007 4.97458C73.8719 5.03953 73.784 5.05342 73.4676 5.10121L73.4436 5.12204C73.4404 5.14914 73.4371 5.17515 73.434 5.20115C73.3848 5.11646 73.3136 5.04416 73.2036 4.99909C73.0629 4.94013 72.7325 5.01611 72.4485 5.2917C72.2489 5.48845 72.1531 5.75805 72.0987 6.01662ZM72.7894 6.03255C72.8598 5.71134 72.9406 5.43957 73.1502 5.43957C73.2826 5.43957 73.3524 5.56987 73.3382 5.79209C73.327 5.84751 73.3148 5.90592 73.3004 5.97196C73.2794 6.0674 73.2567 6.16203 73.2346 6.2568C73.2121 6.32161 73.1859 6.38275 73.1572 6.42346C73.1033 6.50489 72.975 6.5554 72.9011 6.5554C72.8802 6.5554 72.7509 6.5554 72.7464 6.35225C72.7454 6.25108 72.765 6.14692 72.7894 6.03255ZM76.396 4.97198L76.3706 4.94107C76.0452 5.01133 75.9863 5.0225 75.6874 5.06552L75.6654 5.08894C75.6644 5.09275 75.6635 5.09861 75.6619 5.10392L75.6609 5.09861C75.4384 5.64584 75.4449 5.52779 75.2637 5.9586C75.2627 5.93899 75.2627 5.92674 75.2617 5.9059L75.2163 4.97198L75.1878 4.94107C74.847 5.01133 74.8389 5.0225 74.5241 5.06552L74.4996 5.08894C74.4961 5.10011 74.4961 5.11236 74.4941 5.12571L74.4961 5.13047C74.5355 5.34479 74.526 5.297 74.5655 5.63522C74.5839 5.8012 74.6084 5.96813 74.6268 6.13207C74.6579 6.40643 74.6753 6.5415 74.7132 6.96019C74.5006 7.33409 74.4503 7.47556 74.2456 7.80371L74.247 7.80697L74.1029 8.04988C74.0864 8.07548 74.0715 8.09305 74.0505 8.10054C74.0275 8.11265 73.9976 8.11483 73.9561 8.11483H73.8763L73.7576 8.53557L74.1647 8.54306C74.4038 8.54197 74.554 8.42283 74.6349 8.2627L74.8909 7.79513H74.8868L74.9138 7.76218C75.086 7.36704 76.396 4.97198 76.396 4.97198ZM72.0987 10.4977H71.926L72.5653 8.24412H72.7773L72.8447 8.01196L72.8512 8.27012C72.8433 8.4297 72.9611 8.57117 73.2705 8.54775H73.6283L73.7515 8.11381H73.6168C73.5394 8.11381 73.5035 8.09298 73.508 8.04832L73.5015 7.78566H72.8388V7.78703C72.6245 7.79179 71.9847 7.80895 71.8552 7.84571C71.6984 7.88874 71.5332 8.01537 71.5332 8.01537L71.5981 7.78294H70.9783L70.8491 8.24412L70.2012 10.5322H70.0755L69.9522 10.963H71.1869L71.1455 11.1066H71.7539L71.7942 10.963H71.9649L72.0987 10.4977ZM71.5921 8.70202C71.4929 8.7313 71.3081 8.82007 71.3081 8.82007L71.4724 8.24412H71.9649L71.8461 8.66376C71.8461 8.66376 71.694 8.67329 71.5921 8.70202ZM71.6016 9.52484C71.6016 9.52484 71.4469 9.54554 71.345 9.57005C71.2448 9.60245 71.0567 9.70457 71.0567 9.70457L71.2264 9.10519H71.7214L71.6016 9.52484ZM71.3256 10.503H70.8316L70.9748 9.99718H71.4673L71.3256 10.503ZM72.5154 9.10519H73.2275L73.1252 9.45839H72.4036L72.2953 9.84454H72.9266L72.4486 10.562C72.4151 10.6147 72.3851 10.6333 72.3517 10.6482C72.3183 10.6663 72.2743 10.6875 72.2235 10.6875H72.0483L71.928 11.1104H72.3861C72.6242 11.1104 72.7649 10.995 72.8688 10.8434L73.1966 10.3652L73.267 10.8508C73.2819 10.9417 73.3433 10.995 73.3848 11.0157C73.4306 11.0402 73.478 11.0822 73.545 11.0885C73.6168 11.0918 73.6687 11.0944 73.7031 11.0944H73.9283L74.0634 10.6211H73.9746C73.9237 10.6211 73.8359 10.6119 73.8209 10.5949C73.806 10.5742 73.806 10.5424 73.7979 10.4939L73.7265 10.0073H73.4341L73.5624 9.84454H74.2825L74.3933 9.45839H73.7265L73.8304 9.10519H74.4951L74.6184 8.66962H72.6366L72.5154 9.10519ZM66.5008 10.6014L66.667 10.0121H67.3501L67.4749 9.57376H66.7912L66.8956 9.21103H67.5637L67.6875 8.78662H66.0157L65.8944 9.21103H66.2743L66.173 9.57376H65.7921L65.6659 10.0196H66.0456L65.8241 10.7992C65.7942 10.9024 65.8381 10.9418 65.866 10.9897C65.8944 11.0364 65.9233 11.0673 65.9882 11.0849C66.0552 11.1008 66.101 11.1103 66.1634 11.1103H66.9335L67.0707 10.6248L66.7293 10.6748C66.6634 10.6748 66.4809 10.6663 66.5008 10.6014ZM66.5791 7.78029L66.406 8.11374C66.369 8.18659 66.3356 8.23179 66.3056 8.25263C66.2792 8.27019 66.2268 8.27754 66.1509 8.27754H66.0606L65.9398 8.70413H66.2398C66.3841 8.70413 66.4948 8.64776 66.5477 8.61958C66.6046 8.58717 66.6195 8.60569 66.6635 8.56048L66.7648 8.46694H67.7015L67.8258 8.02279H67.1401L67.2598 7.78029H66.5791ZM67.962 10.6099C67.9461 10.5854 67.9576 10.5423 67.982 10.4524L68.238 9.54924H69.1488C69.2815 9.5472 69.3773 9.54556 69.4397 9.5408C69.5066 9.53331 69.5795 9.50785 69.6588 9.4621C69.7407 9.41417 69.7826 9.36365 69.818 9.30565C69.8575 9.24778 69.9208 9.12115 69.9752 8.9259L70.2971 7.78297L69.3519 7.78882C69.3519 7.78882 69.0609 7.83457 68.9327 7.88509C68.8035 7.94146 68.6187 8.09886 68.6187 8.09886L68.7041 7.78556H68.1202L67.3028 10.6747C67.2738 10.7869 67.2544 10.8684 67.2499 10.9172C67.2484 10.9699 67.3123 11.0221 67.3537 11.0614C67.4026 11.1008 67.4749 11.0944 67.5443 11.1008C67.6172 11.1066 67.721 11.1103 67.8642 11.1103H68.3129L68.4506 10.6147L68.0489 10.6551C68.006 10.6551 67.9749 10.6306 67.962 10.6099ZM68.4032 8.93924H69.3598L69.299 9.14239C69.2905 9.14716 69.27 9.13232 69.1727 9.14457H68.3443L68.4032 8.93924ZM68.5948 8.2579H69.5595L69.4902 8.50258C69.4902 8.50258 69.0355 8.49781 68.9626 8.51211C68.6422 8.5712 68.4551 8.75366 68.4551 8.75366L68.5948 8.2579ZM69.3204 9.82269C69.3125 9.85305 69.3 9.87157 69.2825 9.88546C69.2631 9.8988 69.2316 9.90357 69.1848 9.90357H69.0484L69.0565 9.65617H68.4895L68.4665 10.8657C68.4656 10.953 68.4735 11.0035 68.5335 11.0439C68.5934 11.0944 68.778 11.1008 69.0265 11.1008H69.3818L69.51 10.6481L69.2007 10.6662L69.0979 10.6726C69.0838 10.6662 69.0704 10.6603 69.0555 10.6444C69.0424 10.6307 69.0205 10.6391 69.024 10.5518L69.0265 10.2418L69.3508 10.2275C69.526 10.2275 69.6009 10.1668 69.6647 10.1089C69.7257 10.0535 69.7456 9.98976 69.7686 9.90357L69.823 9.62907H69.3773L69.3204 9.82269Z" fill="#FEFEFE"/>
<rect x="84" y="0.134033" width="24" height="13.8253" fill="white"/>
<path d="M100.312 8.5003H101.683C101.722 8.5003 101.814 8.48748 101.853 8.48748C102.114 8.4362 102.336 8.20543 102.336 7.88492C102.336 7.57722 102.114 7.34645 101.853 7.28235C101.814 7.26953 101.735 7.26953 101.683 7.26953H100.312V8.5003Z" fill="url(#paint0_linear_26283_1741)"/>
<path d="M101.526 0.00012207C100.221 0.00012207 99.1498 1.03858 99.1498 2.33346V4.75653H102.506C102.584 4.75653 102.676 4.75653 102.741 4.76935C103.498 4.80781 104.06 5.19243 104.06 5.8591C104.06 6.38474 103.681 6.83346 102.976 6.9232V6.94884C103.746 7.00012 104.334 7.4232 104.334 8.07705C104.334 8.78217 103.681 9.24371 102.819 9.24371H99.1368V13.9873H102.623C103.929 13.9873 105 12.9488 105 11.654V0.00012207H101.526Z" fill="url(#paint1_linear_26283_1741)"/>
<path d="M102.166 6.01271C102.166 5.70502 101.944 5.49989 101.683 5.46143C101.657 5.46143 101.592 5.44861 101.553 5.44861H100.312V6.57681H101.553C101.592 6.57681 101.67 6.57681 101.683 6.56399C101.944 6.52553 102.166 6.3204 102.166 6.01271Z" fill="url(#paint2_linear_26283_1741)"/>
<path d="M88.3897 0.00012207C87.0838 0.00012207 86.0131 1.03858 86.0131 2.33346V8.08987C86.679 8.41038 87.3711 8.61551 88.0632 8.61551C88.8859 8.61551 89.3299 8.12833 89.3299 7.46166V4.74371H91.367V7.44884C91.367 8.50012 90.701 9.3591 88.4419 9.3591C87.0708 9.3591 86 9.06423 86 9.06423V13.9745H89.4866C90.7924 13.9745 91.8632 12.936 91.8632 11.6411V0.00012207H88.3897Z" fill="url(#paint3_linear_26283_1741)"/>
<path d="M94.9581 0.00012207C93.6522 0.00012207 92.5814 1.03858 92.5814 2.33346V5.38474C93.1821 4.88474 94.2268 4.56423 95.9113 4.64115C96.8123 4.67961 97.7787 4.9232 97.7787 4.9232V5.91038C97.2955 5.66679 96.7209 5.44884 95.9766 5.39756C94.6969 5.30781 93.9264 5.9232 93.9264 7.00012C93.9264 8.08987 94.6969 8.70525 95.9766 8.60269C96.7209 8.5514 97.2955 8.32064 97.7787 8.08987V9.07705C97.7787 9.07705 96.8254 9.32064 95.9113 9.3591C94.2268 9.43602 93.1821 9.11551 92.5814 8.61551V14.0001H96.068C97.3739 14.0001 98.4446 12.9617 98.4446 11.6668V0.00012207H94.9581Z" fill="url(#paint4_linear_26283_1741)"/>
<defs>
<linearGradient id="paint0_linear_26283_1741" x1="99.1476" y1="7.88644" x2="105.016" y2="7.88644" gradientUnits="userSpaceOnUse">
<stop stop-color="#007940"/>
<stop offset="0.2285" stop-color="#00873F"/>
<stop offset="0.7433" stop-color="#40A737"/>
<stop offset="1" stop-color="#5CB531"/>
</linearGradient>
<linearGradient id="paint1_linear_26283_1741" x1="99.1475" y1="6.98811" x2="105.016" y2="6.98811" gradientUnits="userSpaceOnUse">
<stop stop-color="#007940"/>
<stop offset="0.2285" stop-color="#00873F"/>
<stop offset="0.7433" stop-color="#40A737"/>
<stop offset="1" stop-color="#5CB531"/>
</linearGradient>
<linearGradient id="paint2_linear_26283_1741" x1="99.1475" y1="6.01111" x2="105.016" y2="6.01111" gradientUnits="userSpaceOnUse">
<stop stop-color="#007940"/>
<stop offset="0.2285" stop-color="#00873F"/>
<stop offset="0.7433" stop-color="#40A737"/>
<stop offset="1" stop-color="#5CB531"/>
</linearGradient>
<linearGradient id="paint3_linear_26283_1741" x1="86.0103" y1="6.98811" x2="91.9692" y2="6.98811" gradientUnits="userSpaceOnUse">
<stop stop-color="#1F286F"/>
<stop offset="0.4751" stop-color="#004E94"/>
<stop offset="0.8261" stop-color="#0066B1"/>
<stop offset="1" stop-color="#006FBC"/>
</linearGradient>
<linearGradient id="paint4_linear_26283_1741" x1="92.5477" y1="6.98811" x2="98.3352" y2="6.98811" gradientUnits="userSpaceOnUse">
<stop stop-color="#6C2C2F"/>
<stop offset="0.1735" stop-color="#882730"/>
<stop offset="0.5731" stop-color="#BE1833"/>
<stop offset="0.8585" stop-color="#DC0436"/>
<stop offset="1" stop-color="#E60039"/>
</linearGradient>
</defs>
</svg>
