<svg width="40" height="40" viewBox="0 0 40 40" fill="none" xmlns="http://www.w3.org/2000/svg">
<rect width="40" height="40" rx="6" fill="#005E7B"/>
<path d="M24.084 11C25.106 11 25.9346 11.8286 25.9346 12.8506V15.0371H18.8213C17.4238 15.0372 16.3458 16.2172 16.3457 17.6025V24.626H7.85059C6.8286 24.626 6 23.7974 6 22.7754V12.8506C6 11.8286 6.8286 11 7.85059 11H24.084ZM9.25488 20.3203C8.89755 20.3203 8.60742 20.6104 8.60742 20.9678C8.6076 21.325 8.89766 21.6143 9.25488 21.6143H14.1406C14.4976 21.614 14.7869 21.3248 14.7871 20.9678C14.7871 20.6106 14.4977 20.3206 14.1406 20.3203H9.25488ZM9.28027 13.4453C8.90885 13.4454 8.60768 13.7468 8.60742 14.1182V16.6553C8.6076 17.0267 8.9088 17.3281 9.28027 17.3281H12.0547C12.4261 17.328 12.7274 17.0266 12.7275 16.6553V14.1182C12.7273 13.7469 12.426 13.4455 12.0547 13.4453H9.28027Z" fill="white"/>
<path d="M32.7898 16.0887C33.7421 16.0888 34.5144 16.8611 34.5144 17.8134V27.2753C34.5144 28.2276 33.7421 28.9999 32.7898 28.9999H19.1218C18.1695 28.9999 17.3972 28.2276 17.3972 27.2753V17.8134C17.3972 16.861 18.1695 16.0887 19.1218 16.0887H32.7898ZM18.7429 27.2753C18.7429 27.4843 18.9128 27.6542 19.1218 27.6542H32.7898C32.9988 27.6542 33.1687 27.4843 33.1687 27.2753V22.3134H18.7429V27.2753ZM30.9627 24.0399C31.32 24.0399 31.6101 24.3301 31.6101 24.6874C31.6101 25.0447 31.32 25.3348 30.9627 25.3348H26.0769C25.7196 25.3348 25.4304 25.0447 25.4304 24.6874C25.4304 24.3301 25.7196 24.0399 26.0769 24.0399H30.9627ZM19.1218 17.4344C18.9128 17.4344 18.7429 17.6043 18.7429 17.8134V19.6219H33.1687V17.8134C33.1687 17.6043 32.9988 17.4345 32.7898 17.4344H19.1218Z" fill="white"/>
</svg>
